<svg width="40" height="40" viewBox="0 0 40 40" fill="none" xmlns="http://www.w3.org/2000/svg">
<path d="M24.8485 31.6845H34.4732C35.4429 31.6845 36.267 30.933 36.3398 29.9877L13.358 29.9874C13.4309 30.9327 14.2549 31.6842 15.2247 31.6842L24.8485 31.6845ZM28.4851 13.333H15.2247C14.1821 13.333 13.3336 14.1815 13.3336 15.2241V26.351H36.3638V15.2241C36.3638 14.1818 35.5153 13.333 34.4727 13.333H28.4851ZM5.52707 3.63618C4.48477 3.63618 3.63596 4.48467 3.63596 5.52728V16.6542H9.69653V15.2241C9.69653 12.1695 12.1695 9.69703 15.2236 9.69703L26.6665 9.69672V5.52697C26.6665 4.48467 25.818 3.63587 24.7754 3.63587L5.52707 3.63618ZM9.69684 25.6242H5.52707C2.49691 25.6242 0 23.1754 0 20.0968V5.52704C0 2.47309 2.49691 0.0245237 5.52707 0H24.7755C27.8057 0 30.3026 2.47301 30.3026 5.52704V9.69679H34.4724C37.527 9.69679 40 12.1698 40 15.2244V29.7942C40 32.8488 37.527 35.3212 34.4729 35.3212H26.6666V36.3635H29.3089C30.3028 36.3635 31.1272 37.1879 31.1272 38.1818C31.1272 39.1756 30.3028 40 29.3089 40H20.4121C19.394 40 18.5938 39.1756 18.5938 38.1818C18.5938 37.1879 19.3937 36.3635 20.4121 36.3635H23.0302V35.3212H15.2245C12.1699 35.3212 9.6974 32.8482 9.6974 29.7942V25.6244L9.69684 25.6242ZM5.52707 21.9877H9.69684V20.291H3.6604C3.73326 21.2604 4.55795 21.9877 5.52707 21.9877Z" fill="#CF69FF"/>
</svg>
