<svg width="36" height="29" viewBox="0 0 36 29" fill="none" xmlns="http://www.w3.org/2000/svg">
<path d="M4.05 4.98438C4.05 4.14314 4.38187 3.33636 4.97261 2.74152C5.56335 2.14668 6.36457 1.8125 7.2 1.8125C8.03543 1.8125 8.83665 2.14668 9.42739 2.74152C10.0181 3.33636 10.35 4.14314 10.35 4.98438C10.35 5.82561 10.0181 6.63239 9.42739 7.22723C8.83665 7.82207 8.03543 8.15625 7.2 8.15625C6.36457 8.15625 5.56335 7.82207 4.97261 7.22723C4.38187 6.63239 4.05 5.82561 4.05 4.98438ZM3.6 13.9166C3.0375 14.551 2.7 15.3949 2.7 16.3125C2.7 17.2301 3.0375 18.074 3.6 18.7084V13.9166ZM11.7225 11.1242C10.0519 12.6139 9 14.7945 9 17.2188C9 19.1615 9.675 20.9457 10.8 22.3447V23.5625C10.8 24.565 9.99562 25.375 9 25.375H5.4C4.40437 25.375 3.6 24.565 3.6 23.5625V22.0445C1.47375 21.025 0 18.8443 0 16.3125C0 12.8064 2.81812 9.96875 6.3 9.96875H8.1C9.45 9.96875 10.6987 10.3936 11.7225 11.1186V11.1242ZM25.2 23.5625V22.3447C26.325 20.9457 27 19.1615 27 17.2188C27 14.7945 25.9481 12.6139 24.2775 11.1186C25.3012 10.3936 26.55 9.96875 27.9 9.96875H29.7C33.1819 9.96875 36 12.8064 36 16.3125C36 18.8443 34.5262 21.025 32.4 22.0445V23.5625C32.4 24.565 31.5956 25.375 30.6 25.375H27C26.0044 25.375 25.2 24.565 25.2 23.5625ZM25.65 4.98438C25.65 4.14314 25.9819 3.33636 26.5726 2.74152C27.1634 2.14668 27.9646 1.8125 28.8 1.8125C29.6354 1.8125 30.4366 2.14668 31.0274 2.74152C31.6181 3.33636 31.95 4.14314 31.95 4.98438C31.95 5.82561 31.6181 6.63239 31.0274 7.22723C30.4366 7.82207 29.6354 8.15625 28.8 8.15625C27.9646 8.15625 27.1634 7.82207 26.5726 7.22723C25.9819 6.63239 25.65 5.82561 25.65 4.98438ZM32.4 13.9166V18.7141C32.9625 18.074 33.3 17.2357 33.3 16.3182C33.3 15.4006 32.9625 14.5566 32.4 13.9223V13.9166ZM18 1.8125C18.9548 1.8125 19.8705 2.19442 20.5456 2.87424C21.2207 3.55406 21.6 4.47609 21.6 5.4375C21.6 6.39891 21.2207 7.32094 20.5456 8.00076C19.8705 8.68058 18.9548 9.0625 18 9.0625C17.0452 9.0625 16.1295 8.68058 15.4544 8.00076C14.7793 7.32094 14.4 6.39891 14.4 5.4375C14.4 4.47609 14.7793 3.55406 15.4544 2.87424C16.1295 2.19442 17.0452 1.8125 18 1.8125ZM13.5 17.2188C13.5 18.1363 13.8375 18.9746 14.4 19.6146V14.8229C13.8375 15.4629 13.5 16.3012 13.5 17.2188ZM21.6 14.8229V19.6203C22.1625 18.9803 22.5 18.142 22.5 17.2244C22.5 16.3068 22.1625 15.4629 21.6 14.8285V14.8229ZM25.2 17.2188C25.2 19.7506 23.7262 21.9313 21.6 22.9508V25.375C21.6 26.3775 20.7956 27.1875 19.8 27.1875H16.2C15.2044 27.1875 14.4 26.3775 14.4 25.375V22.9508C12.2737 21.9313 10.8 19.7506 10.8 17.2188C10.8 13.7127 13.6181 10.875 17.1 10.875H18.9C22.3819 10.875 25.2 13.7127 25.2 17.2188Z" fill="#FF4141"/>
</svg>
