<svg width="39" height="39" viewBox="0 0 39 39" fill="none" xmlns="http://www.w3.org/2000/svg">
<path d="M18.0552 0H20.4625V3.15966H18.0552V0Z" fill="#00A3FF"/>
<path d="M37.3137 26.5059V28.4978L1.20367 28.4981V26.5061L37.3137 26.5059ZM38.5174 25.3022H0V29.7015H38.5174V25.3022Z" fill="#00A3FF"/>
<path d="M35.4149 25.5904H34.2112V3.37273H4.30865V25.5904H3.10498V2.16906H35.4149V25.5904Z" fill="#00A3FF"/>
<path d="M11.9619 32.0971H26.5566V33.3007H11.9619V32.0971Z" fill="#00A3FF"/>
<path d="M9.67041 37.9269L12.0764 28.799L14.4042 29.4127L11.9982 38.5406L9.67041 37.9269Z" fill="#00A3FF"/>
<path d="M24.1113 29.4146L26.4389 28.8007L28.8459 37.9272L26.5184 38.5412L24.1113 29.4146Z" fill="#00A3FF"/>
<path d="M19.2589 10.8609C20.3241 10.8609 21.1895 11.7277 21.1895 12.7916C21.1895 13.8569 20.3228 14.7223 19.2589 14.7223C18.195 14.7223 17.3282 13.8555 17.3282 12.7916C17.3282 11.7277 18.1936 10.8609 19.2589 10.8609ZM19.2589 9.65726C17.5281 9.65726 16.1245 11.0608 16.1245 12.7916C16.1245 14.5224 17.5281 15.926 19.2589 15.926C20.9897 15.926 22.3932 14.5224 22.3932 12.7916C22.3932 11.0608 20.9897 9.65726 19.2589 9.65726Z" fill="#00A3FF"/>
<path d="M19.2588 17.8092C20.9187 17.8092 22.3475 19.073 22.8386 20.8062H15.6806C16.1704 19.0743 17.5993 17.8092 19.2591 17.8092M19.2591 16.6055C16.5497 16.6055 14.3507 19.0153 14.2964 22.0099H24.2229C24.1672 19.0166 21.9682 16.6055 19.2588 16.6055H19.2591Z" fill="#00A3FF"/>
<path d="M11.3749 7.98175C12.0092 7.98175 12.5256 8.49814 12.5256 9.13245C12.5256 9.76677 12.0092 10.2832 11.3749 10.2832C10.7406 10.2832 10.2242 9.76677 10.2242 9.13245C10.2242 8.49814 10.7406 7.98175 11.3749 7.98175ZM11.3749 6.77808C10.0751 6.77808 9.02051 7.83236 9.02051 9.13245C9.02051 10.4323 10.0751 11.4879 11.3749 11.4879C12.6747 11.4879 13.7293 10.4337 13.7293 9.13355C13.7293 7.83373 12.6761 6.77808 11.3749 6.77808Z" fill="#00A3FF"/>
<path d="M11.375 13.2022C12.3621 13.2022 13.2285 13.8787 13.6426 14.8548H9.10842C9.52137 13.8788 10.3879 13.2022 11.375 13.2022ZM11.375 11.9986C9.33945 11.9986 7.68685 13.8089 7.646 16.0585H15.1025C15.0628 13.8089 13.4112 11.9986 11.3747 11.9986H11.375Z" fill="#00A3FF"/>
<path d="M27.1425 7.98175C27.7768 7.98175 28.2932 8.49814 28.2932 9.13245C28.2932 9.76677 27.7768 10.2832 27.1425 10.2832C26.5081 10.2832 25.9918 9.76677 25.9918 9.13245C25.9907 8.49811 26.5071 7.98175 27.1425 7.98175ZM27.1425 6.77808C25.8426 6.77808 24.7881 7.83236 24.7881 9.13245C24.7881 10.4323 25.8424 11.4868 27.1425 11.4868C28.4423 11.4868 29.4968 10.4326 29.4968 9.13245C29.4968 7.83263 28.4423 6.77808 27.1425 6.77808Z" fill="#00A3FF"/>
<path d="M27.1425 13.2022C28.1296 13.2022 28.996 13.8787 29.4101 14.8548H24.8746C25.2889 13.8788 26.1543 13.2022 27.1425 13.2022M27.1425 11.9986C25.107 11.9986 23.4544 13.8089 23.4136 16.0585H30.8701C30.8304 13.8089 29.1778 11.9986 27.1423 11.9986H27.1425Z" fill="#00A3FF"/>
</svg>
