<svg width="34" height="47" viewBox="0 0 34 47" fill="none" xmlns="http://www.w3.org/2000/svg">
<path d="M17.9026 25.8501H3.73854C3.75567 25.7648 3.7754 25.6781 3.79997 25.5932C5.30407 20.4185 8.08264 20.2409 8.68167 20.1009C9.85923 19.8243 11.2852 19.9423 12.0462 19.7048C12.1791 20.8188 14.3233 21.7041 16.9495 21.7041C19.575 21.7041 21.7194 20.8188 21.8535 19.7048C22.6141 19.9423 24.04 19.8243 25.218 20.1009C25.8163 20.2402 28.5948 20.4185 30.0997 25.5932C30.1243 25.6781 30.1444 25.7644 30.1611 25.8501H17.9026Z" fill="#FFA621"/>
<path d="M16.0813 35.2667C16.0813 35.744 16.4682 36.1308 16.9454 36.1308C17.4227 36.1308 17.8096 35.744 17.8096 35.2667C17.8096 34.7894 17.4227 34.4026 16.9454 34.4026C16.4682 34.4026 16.0813 34.7894 16.0813 35.2667Z" fill="#FFA621"/>
<path d="M3.4013 44.8092H30.4894C30.871 44.8092 31.1797 45.1208 31.1797 45.505C31.1797 45.8881 30.871 46.2005 30.4894 46.2005H3.4013C3.02006 46.2005 2.71178 45.8892 2.71178 45.505C2.71141 45.1208 3.02117 44.8092 3.4013 44.8092Z" fill="#FFA621"/>
<path d="M29.0149 44.3984H4.87569C3.97843 44.3984 3.25056 43.6713 3.25056 42.7733L1.62399e-08 27.476C1.62399e-08 26.5783 0.727487 25.8508 1.62514 25.8508H32.2655C33.1631 25.8508 33.8906 26.5779 33.8906 27.476L30.6401 42.7733C30.6412 43.6716 29.913 44.3984 29.0149 44.3984ZM32.1188 26.1141H1.77201C0.883321 26.1141 0.162128 26.8267 0.162128 27.7046L3.41268 42.5444C3.41268 43.4231 4.13384 44.135 5.02295 44.135H28.8677C29.7567 44.135 30.4776 43.4224 30.4776 42.5444L33.7285 27.7046C33.7292 26.8263 33.0081 26.1141 32.1186 26.1141H32.1188Z" fill="#FFA621"/>
<path d="M24.3397 3.96844L24.3766 4.47961C24.5757 4.51312 24.7273 4.68625 24.7273 4.89474C24.7273 5.08275 24.6044 5.24098 24.4354 5.29496L24.7749 10.0429L24.3069 11.4472L23.8389 10.0429L24.1777 5.29496C24.0087 5.23986 23.8859 5.082 23.8859 4.89474C23.8859 4.68587 24.0374 4.5135 24.2358 4.47961L24.2693 4.00902L23.4585 4.47924L23.4249 4.49786L22.782 4.87091L22.9577 7.11328L22.8334 7.15907C23.0143 7.68998 23.1316 8.28421 23.1844 8.91783C23.3002 9.39141 23.368 9.88285 23.368 10.3903H23.3568C23.3568 10.3951 23.3579 10.3988 23.3579 10.4026C23.3654 10.4037 23.3725 10.4037 23.3799 10.4052C23.8203 10.4819 24.0214 11.4208 23.8267 12.5028C23.6498 13.4972 23.2016 14.2652 22.7886 14.3234C22.2622 15.7389 21.4293 17.1138 20.3992 18.1198C19.8166 18.6883 19.1709 19.1391 18.4815 19.4131C18.0079 19.6004 17.5143 19.7047 17.0064 19.7047C16.4989 19.7047 16.0045 19.6004 15.5312 19.4131C14.8183 19.1302 14.1522 18.657 13.5528 18.0594C12.5479 17.0572 11.736 15.7031 11.221 14.3115C10.8238 14.1949 10.4083 13.4522 10.2388 12.5031C10.0538 11.4726 10.2288 10.5743 10.6257 10.4242C10.6123 10.1729 10.6022 9.91864 10.6022 9.65878C10.6059 8.30842 10.8986 7.16622 11.4284 6.24247L11.5438 5.08017L10.8554 4.68143L10.5058 4.47964L9.04487 3.63376C8.95366 3.54254 8.95366 3.39474 9.04487 3.30277L16.816 0.0681316C16.9068 -0.0227105 17.0558 -0.0227105 17.1455 0.0681316L24.9189 3.30277C25.0101 3.39399 25.0101 3.54179 24.9189 3.63376L24.3397 3.96844ZM11.2936 12.6446C11.3875 13.1711 11.593 13.6034 11.8119 13.7891C11.899 13.8628 11.988 13.8975 12.074 13.8818C12.122 13.8736 12.1648 13.8498 12.2043 13.8133C12.682 15.2981 13.5915 16.7777 14.7386 17.6756C15.4233 18.2113 16.1925 18.5408 17.0052 18.5408C17.8008 18.5408 18.5547 18.2258 19.2282 17.7102C20.3965 16.8155 21.3231 15.3181 21.8072 13.814C21.8466 13.8509 21.8895 13.8743 21.9379 13.8825C22.0376 13.8996 22.1419 13.8501 22.2417 13.75C22.4438 13.5471 22.6292 13.1372 22.7167 12.6449C22.7231 12.6126 22.7264 12.582 22.7305 12.55C22.7268 12.2053 22.7108 11.8709 22.6877 11.5418C22.6445 11.4149 22.5872 11.3155 22.5138 11.2633C22.4829 11.241 22.4494 11.2254 22.4133 11.2201C22.331 11.2056 22.2458 11.2376 22.162 11.3047H22.1609C22.1609 11.2976 22.1605 11.2913 22.1605 11.2846C22.1318 11.0038 21.7577 8.55296 19.3984 8.77112C19.3984 8.77112 18.5849 9.07008 17.5138 9.12705C17.0377 9.28826 16.8195 9.26964 16.2722 9.06562C15.9975 9.02169 15.7208 8.95728 15.4472 8.85973C15.2454 8.85563 15.0485 8.85377 14.8664 8.8601C14.0861 8.88951 13.5529 9.2931 12.994 9.55333C13.0141 9.29607 13.2118 9.03248 13.2022 8.8601C13.1132 8.88579 13.032 8.92377 12.9535 8.96584C12.5514 9.39436 12.1608 10.114 11.8518 11.2898C11.8506 11.2946 11.8506 11.2995 11.8506 11.3047C11.8495 11.3047 11.8492 11.3036 11.848 11.3032C11.848 11.3036 11.8469 11.3036 11.8469 11.3047L11.8432 11.2987C11.7617 11.2347 11.6783 11.2053 11.5986 11.2198C11.5777 11.2231 11.5591 11.2298 11.5405 11.2384C11.2821 11.359 11.1719 11.9592 11.2936 12.6446Z" fill="#FFA621"/>
</svg>
